<svg xmlns="http://www.w3.org/2000/svg" viewBox="0 0 1200 630" role="img" aria-label="Vomegle voice arena">
  <defs>
    <radialGradient id="glow" cx="50%" cy="38%" r="58%">
      <stop offset="0%" stop-color="#5f25d8" stop-opacity=".72"/>
      <stop offset="55%" stop-color="#16031f" stop-opacity=".92"/>
      <stop offset="100%" stop-color="#050308"/>
    </radialGradient>
    <linearGradient id="title" x1="260" y1="170" x2="940" y2="310">
      <stop offset="0%" stop-color="#ffffff"/>
      <stop offset="72%" stop-color="#f3efff"/>
      <stop offset="100%" stop-color="#a5a0b9"/>
    </linearGradient>
  </defs>
  <rect width="1200" height="630" fill="url(#glow)"/>
  <circle cx="600" cy="324" r="214" fill="none" stroke="#7b45ff" stroke-opacity=".28" stroke-width="2"/>
  <g opacity=".84">
    <rect x="164" y="409" width="18" height="76" rx="9" fill="#42f59b"/>
    <rect x="198" y="382" width="18" height="130" rx="9" fill="#42f59b"/>
    <rect x="232" y="356" width="18" height="182" rx="9" fill="#42f59b"/>
    <rect x="266" y="391" width="18" height="112" rx="9" fill="#42f59b"/>
    <rect x="300" y="421" width="18" height="60" rx="9" fill="#42f59b"/>
    <rect x="882" y="421" width="18" height="60" rx="9" fill="#ffe66d"/>
    <rect x="916" y="391" width="18" height="112" rx="9" fill="#ffe66d"/>
    <rect x="950" y="356" width="18" height="182" rx="9" fill="#ffe66d"/>
    <rect x="984" y="382" width="18" height="130" rx="9" fill="#ffe66d"/>
    <rect x="1018" y="409" width="18" height="76" rx="9" fill="#ffe66d"/>
  </g>
  <text x="600" y="282" text-anchor="middle" fill="url(#title)" font-family="Inter, Arial, sans-serif" font-size="126" font-weight="950" letter-spacing="4">VOMEGLE</text>
  <text x="600" y="354" text-anchor="middle" fill="#ded5ef" font-family="Inter, Arial, sans-serif" font-size="32" font-weight="760">Voice-only arena. Read the line, hear the challenger, climb the rankings.</text>
  <text x="600" y="432" text-anchor="middle" fill="#65efff" font-family="Inter, Arial, sans-serif" font-size="22" font-weight="900" letter-spacing="8">READ · LISTEN · WIN</text>
</svg>
